<svg width="20" height="20" viewBox="0 0 20 20" fill="none" xmlns="http://www.w3.org/2000/svg">
<path d="M18.7621 5.01562C17.6207 5.01562 16.5676 4.6375 15.7219 3.99961C14.7519 3.26836 14.0551 2.1957 13.809 0.959375C13.748 0.653906 13.7152 0.338672 13.7121 0.015625H10.4516V8.925L10.4476 13.8051C10.4476 15.1098 9.59804 16.216 8.42031 16.6051C8.07851 16.718 7.70937 16.7715 7.32499 16.7504C6.83437 16.7234 6.3746 16.5754 5.97499 16.3363C5.1246 15.8277 4.54804 14.9051 4.53241 13.8496C4.5078 12.2 5.8414 10.8551 7.48984 10.8551C7.81523 10.8551 8.12773 10.9082 8.42031 11.0047V8.56953V7.69414C8.11171 7.64844 7.79765 7.62461 7.48007 7.62461C5.67577 7.62461 3.98827 8.37461 2.78202 9.72578C1.8703 10.7469 1.32343 12.0496 1.23905 13.4156C1.12851 15.2102 1.78515 16.916 3.05859 18.1746C3.24569 18.3594 3.44218 18.5309 3.64765 18.6891C4.73945 19.5293 6.07421 19.9848 7.48007 19.9848C7.79765 19.9848 8.11171 19.9613 8.42031 19.9156C9.73359 19.7211 10.9453 19.1199 11.9016 18.1746C13.0766 17.0133 13.7258 15.4715 13.7328 13.8305L13.716 6.54297C14.2766 6.97539 14.8894 7.3332 15.5473 7.61094C16.5703 8.04258 17.6551 8.26133 18.7715 8.26094V5.89336V5.01484C18.7723 5.01562 18.7629 5.01562 18.7621 5.01562Z" fill="white"/>
</svg>
