<svg width="16" height="16" viewBox="0 0 16 16" fill="none" xmlns="http://www.w3.org/2000/svg">
<path d="M10.3198 8.10066L15.5637 11.417V4.64062L10.3198 8.10066Z" fill="#8F8F8F"/>
<path d="M0 4.64062V11.417L5.24392 8.10066L0 4.64062Z" fill="#8F8F8F"/>
<path d="M14.5944 2.66602H0.969748C0.490851 2.66602 0.0957604 3.02519 0.0239258 3.49211L7.78206 8.60434L15.5402 3.49211C15.4684 3.02519 15.0613 2.66602 14.5944 2.66602Z" fill="#8F8F8F"/>
<path d="M9.42203 8.6875L8.0452 9.5974C7.96139 9.64529 7.87758 9.68121 7.78181 9.68121C7.68603 9.68121 7.59025 9.65727 7.51841 9.5974L6.14158 8.6875L0.0356445 12.5546C0.107479 13.0215 0.502569 13.3687 0.981466 13.3807H14.6061C15.085 13.3807 15.4801 13.0335 15.5519 12.5546L9.42203 8.6875Z" fill="#8F8F8F"/>
</svg>
