<svg width="24" height="24" viewBox="0 0 24 24" fill="none" xmlns="http://www.w3.org/2000/svg">
<path d="M15.48 12.1529L23.3459 17.1275V6.96289L15.48 12.1529Z" fill="#B3907A"/>
<path d="M0 6.96289V17.1275L7.86589 12.1529L0 6.96289Z" fill="#B3907A"/>
<path d="M21.8918 4H1.45487C0.73652 4 0.143885 4.53876 0.0361328 5.23915L11.6733 12.9075L23.3105 5.23915C23.2028 4.53876 22.5922 4 21.8918 4Z" fill="#B3907A"/>
<path d="M14.1333 13.0332L12.068 14.3981C11.9423 14.4699 11.8166 14.5238 11.673 14.5238C11.5293 14.5238 11.3856 14.4879 11.2779 14.3981L9.21262 13.0332L0.0537109 18.8338C0.161463 19.5342 0.754098 20.055 1.47244 20.073H21.9094C22.6277 20.073 23.2204 19.5522 23.3281 18.8338L14.1333 13.0332Z" fill="#B3907A"/>
</svg>
