<svg width="24" height="24" viewBox="0 0 24 24" fill="none" xmlns="http://www.w3.org/2000/svg">
<path fill-rule="evenodd" clip-rule="evenodd" d="M21.6339 19.5921C21.5011 19.7244 21.3409 19.8937 21.1711 20.0728C20.7474 20.5225 20.2181 21.0816 19.8863 21.3083C18.1406 22.5012 15.8053 21.9304 14.1534 21.2421C11.9742 20.3341 9.6017 18.6604 7.47145 16.5298C5.3392 14.399 3.66576 12.0256 2.7578 9.84757C2.07033 8.19521 1.49836 5.85925 2.69139 4.11314C2.91794 3.78111 3.47827 3.25255 3.92739 2.82798C4.10707 2.65868 4.27503 2.49871 4.40784 2.36633C4.64362 2.13171 4.9627 2 5.29532 2C5.62793 2 5.94701 2.13171 6.18279 2.36633L9.39468 5.57745C9.62916 5.81323 9.76078 6.13225 9.76078 6.46478C9.76078 6.79732 9.62916 7.11633 9.39468 7.35211L8.51972 8.22536C8.22751 8.51545 8.03678 8.89214 7.97591 9.29937C7.91504 9.7066 7.98728 10.1226 8.18188 10.4855C9.38533 12.757 11.2432 14.6147 13.5148 15.8178C13.8776 16.0124 14.2935 16.0845 14.7006 16.0235C15.1077 15.9626 15.4842 15.7717 15.774 15.4794L16.6468 14.6061C16.8826 14.3715 17.2017 14.2398 17.5343 14.2398C17.8669 14.2398 18.186 14.3715 18.4218 14.6061L21.6339 17.8178C21.8684 18.0535 22 18.3724 22 18.7049C22 19.0374 21.8684 19.3564 21.6339 19.5921Z" fill="#B3907A"/>
</svg>
