<svg width="14" height="14" viewBox="0 0 14 14" fill="none" xmlns="http://www.w3.org/2000/svg">
<path fill-rule="evenodd" clip-rule="evenodd" d="M13.4228 12.062C13.3342 12.1503 13.2274 12.2631 13.1143 12.3825C12.8318 12.6823 12.4789 13.0551 12.2577 13.2062C11.0939 14.0015 9.53702 13.6209 8.43574 13.1621C6.98297 12.5567 5.4013 11.4409 3.98113 10.0205C2.55963 8.59997 1.444 7.01771 0.838693 5.56569C0.380381 4.46412 -0.000930126 2.90682 0.794424 1.74275C0.945459 1.52139 1.31901 1.16902 1.61842 0.885968C1.73821 0.773103 1.85018 0.666461 1.93872 0.578205C2.09591 0.421791 2.30863 0.333984 2.53037 0.333984C2.75212 0.333984 2.96484 0.421791 3.12203 0.578205L5.26328 2.71895C5.4196 2.87614 5.50735 3.08882 5.50735 3.31051C5.50735 3.5322 5.4196 3.74487 5.26328 3.90206L4.67998 4.48423C4.48517 4.67762 4.35802 4.92874 4.31744 5.20023C4.27685 5.47172 4.32502 5.74905 4.45475 5.99096C5.25705 7.50531 6.49566 8.74377 8.01006 9.54586C8.2519 9.67556 8.52916 9.72366 8.80056 9.68301C9.07195 9.64236 9.32296 9.51513 9.51619 9.32026L10.0981 8.73807C10.2552 8.58165 10.468 8.49385 10.6897 8.49385C10.9115 8.49385 11.1242 8.58165 11.2814 8.73807L13.4228 10.8792C13.5791 11.0363 13.6668 11.2489 13.6668 11.4706C13.6668 11.6923 13.5791 11.9049 13.4228 12.062Z" fill="#8F8F8F"/>
</svg>
