<svg width="24" height="24" viewBox="0 0 24 24" fill="none" xmlns="http://www.w3.org/2000/svg">
<path d="M12 22C17.5214 22 22 17.5214 22 12C22 6.47856 17.5214 2 12 2C6.47856 2 2 6.47856 2 12C2 17.5214 6.47856 22 12 22ZM11.2857 6.28572C11.2857 5.89285 11.6071 5.57142 12 5.57142C12.3929 5.57142 12.7143 5.89285 12.7143 6.28572V11.6572L16.0179 14.3C16.325 14.5464 16.375 14.9964 16.1286 15.3036C15.9893 15.4786 15.7822 15.5714 15.5714 15.5714C15.4143 15.5714 15.2571 15.5214 15.125 15.4143L11.5536 12.5572C11.3857 12.4214 11.2858 12.2179 11.2858 12V6.28572H11.2857Z" fill="#B3907A"/>
</svg>
