<svg width="16" height="16" viewBox="0 0 16 16" fill="none" xmlns="http://www.w3.org/2000/svg">
<path d="M8.00016 14.6673C11.6811 14.6673 14.6668 11.6816 14.6668 8.00065C14.6668 4.31969 11.6811 1.33398 8.00016 1.33398C4.3192 1.33398 1.3335 4.31969 1.3335 8.00065C1.3335 11.6816 4.3192 14.6673 8.00016 14.6673ZM7.52396 4.19113C7.52396 3.92922 7.73825 3.71493 8.00016 3.71493C8.26208 3.71493 8.47637 3.92922 8.47637 4.19113V7.77209L10.6787 9.53399C10.8835 9.69828 10.9168 9.99826 10.7525 10.203C10.6597 10.3197 10.5216 10.3816 10.3811 10.3816C10.2763 10.3816 10.1716 10.3482 10.0835 10.2768L7.70256 8.37209C7.59066 8.2816 7.524 8.1459 7.524 8.00065V4.19113H7.52396Z" fill="#8F8F8F"/>
</svg>
