<svg width="142" height="56" viewBox="0 0 142 56" fill="none" xmlns="http://www.w3.org/2000/svg">
<path d="M50.6766 55.4152C45.9121 55.4152 41.7844 54.1651 38.2936 51.6649C34.8027 49.1175 32.1374 45.7211 30.2977 41.4754C28.5051 37.2298 27.5852 32.5596 27.538 27.4649C27.4908 23.4552 28.222 19.3747 29.7316 15.2234C31.2411 11.025 33.6706 7.48694 37.0199 4.60936C40.3692 1.6846 44.6856 0.222221 49.969 0.222221C55.2996 0.222221 59.6632 1.61384 63.0597 4.39708C66.5033 7.13314 68.9799 10.5768 70.4895 14.7281C72.0462 18.8793 72.8246 23.125 72.8246 27.4649C72.8246 32.6068 71.999 37.3006 70.348 41.5462C68.6969 45.7446 66.1967 49.1175 62.8474 51.6649C59.5452 54.1651 55.4883 55.4152 50.6766 55.4152ZM50.6766 54C56.3846 54 60.5123 51.547 63.0597 46.6409C65.6542 41.6877 66.9279 35.2957 66.8807 27.4649C66.8335 23.408 66.1967 19.3982 64.9702 15.4357C63.7908 11.4731 61.9275 8.19454 59.3801 5.6C56.8799 2.95829 53.7429 1.63743 49.969 1.63743C46.148 1.63743 43.0109 3.07622 40.5579 5.9538C38.1049 8.78421 36.3123 12.2515 35.1801 16.3556C34.0951 20.4596 33.5526 24.4222 33.5526 28.2433C33.5526 33.055 34.1659 37.3949 35.3924 41.2632C36.6661 45.1314 38.5766 48.2212 41.124 50.5327C43.7185 52.8442 46.9027 54 50.6766 54ZM89.503 52.231C90.4464 52.514 91.2484 52.6556 91.9088 52.6556C93.7486 52.6556 94.6685 51.6885 94.6685 49.7544V29.517L82.2147 5.88304C81.6958 4.8924 81.1061 4.16121 80.4457 3.68947C79.8324 3.17056 79.0776 2.91111 78.1813 2.91111C77.7096 2.91111 76.8841 3.07622 75.7047 3.40643V1.63743H92.7579V3.40643C91.6258 3.07622 90.7531 2.91111 90.1398 2.91111C89.385 2.91111 88.7718 3.05263 88.3 3.33567C87.8755 3.61871 87.6632 4.04327 87.6632 4.60936C87.6632 5.03392 87.7811 5.45848 88.017 5.88304L99.3386 27.8187L110.59 7.65205L111.439 6.02456C111.675 5.6 111.792 5.17544 111.792 4.75088C111.792 4.13762 111.486 3.66589 110.873 3.33567C110.259 3.00546 109.481 2.84035 108.537 2.84035C107.594 2.84035 106.556 3.02904 105.424 3.40643V1.63743H119.293V3.40643C118.444 3.12339 117.689 2.98187 117.029 2.98187C115.802 2.98187 114.859 3.47719 114.198 4.46783C112.028 8.00585 109.292 12.8647 105.99 19.0444C103.537 23.6203 101.627 27.1111 100.259 29.517V49.7544C100.259 51.6885 101.178 52.6556 103.018 52.6556C103.726 52.6556 104.528 52.514 105.424 52.231V54H89.503V52.231Z" fill="#383838"/>
<rect width="142" height="19.9883" transform="translate(0 18)" fill="white"/>
<path d="M5.25733 23.4961C3.92565 23.5004 2.99521 23.9212 2.466 24.7583C1.9368 25.5912 1.6722 26.5932 1.6722 27.7644C1.6722 28.9399 2.00403 29.9441 2.66771 30.777C3.33138 31.6055 4.19459 32.0241 5.25733 32.0327H5.28987C6.32659 32.0327 7.17895 31.5903 7.84696 30.7054C8.5063 29.8292 8.83596 28.8618 8.83596 27.8034V27.7644C8.82729 26.6843 8.54534 25.704 7.99011 24.8234C7.43488 23.9385 6.52395 23.4961 5.25733 23.4961ZM5.25733 22.9235H5.3224C6.72349 22.9235 7.90552 23.3529 8.8685 24.2118C9.76641 25.0143 10.2154 26.0727 10.2154 27.387C10.2154 27.5041 10.211 27.6234 10.2024 27.7449C10.1113 29.2371 9.5929 30.3952 8.64727 31.2194C7.70598 32.0392 6.57167 32.486 5.24432 32.5598C5.14455 32.5641 5.04478 32.5663 4.94502 32.5663C3.73913 32.5663 2.67204 32.1498 1.74377 31.317C0.789468 30.4668 0.312317 29.3542 0.312317 27.9791C0.312317 27.901 0.314486 27.823 0.318823 27.7449C0.370876 26.2657 0.848027 25.0967 1.75028 24.2378C2.65686 23.3789 3.82588 22.9408 5.25733 22.9235ZM13.8455 31.7204H16.6238C17.0273 31.7204 17.3678 31.5664 17.6454 31.2584C17.9273 30.9461 18.1399 30.7032 18.283 30.5297C18.3611 30.4343 18.4218 30.3866 18.4652 30.3866C18.5563 30.3866 18.6019 30.4321 18.6019 30.5232C18.6019 30.5796 18.5975 30.6251 18.5888 30.6598L18.1139 32.332H12.1538C12.0627 32.332 12.0172 32.2865 12.0172 32.1954C12.0172 32.0869 12.1256 31.9959 12.3425 31.9221C12.5594 31.844 12.6678 31.664 12.6678 31.3821V24.1532C12.6678 23.8756 12.5594 23.6978 12.3425 23.6197C12.1256 23.5416 12.0172 23.4462 12.0172 23.3334C12.0172 23.2423 12.0627 23.1968 12.1538 23.1968H14.3595C14.4463 23.1968 14.4897 23.2423 14.4897 23.3334C14.4897 23.4462 14.3812 23.5416 14.1644 23.6197C13.9475 23.6978 13.839 23.8756 13.839 24.1532L13.8455 31.7204ZM22.5248 31.7204H25.3031C25.7065 31.7204 26.0471 31.5664 26.3247 31.2584C26.6066 30.9461 26.8192 30.7032 26.9623 30.5297C27.0404 30.4343 27.1011 30.3866 27.1445 30.3866C27.2356 30.3866 27.2811 30.4321 27.2811 30.5232C27.2811 30.5796 27.2768 30.6251 27.2681 30.6598L26.7931 32.332H20.8136C20.7355 32.332 20.6965 32.2865 20.6965 32.1954C20.6965 32.0869 20.8049 31.9959 21.0218 31.9221C21.2387 31.844 21.3471 31.664 21.3471 31.3821V24.1532C21.3471 23.8713 21.2387 23.6934 21.0218 23.6197C20.8049 23.5416 20.6965 23.4462 20.6965 23.3334C20.6965 23.2423 20.742 23.1968 20.8331 23.1968H26.8712V24.869C26.8712 24.9601 26.8257 25.0056 26.7346 25.0056C26.6912 25.0056 26.611 24.9188 26.4938 24.7453C26.277 24.446 26.0883 24.214 25.9278 24.0491C25.7716 23.8843 25.5634 23.8019 25.3031 23.8019H22.5248V27.335H24.0148C24.2924 27.335 24.4746 27.2243 24.5614 27.0031C24.6481 26.7776 24.7479 26.6648 24.8607 26.6648C24.9474 26.6648 24.9908 26.7103 24.9908 26.8014V28.4541C24.9908 28.5452 24.9474 28.5907 24.8607 28.5907C24.7479 28.5907 24.6416 28.4801 24.5419 28.2589C24.4421 28.0377 24.2534 27.9271 23.9758 27.9271H22.5248V31.7204ZM37.2748 31.0112V24.1532C37.2748 23.8756 37.1663 23.6978 36.9494 23.6197C36.7369 23.5416 36.6306 23.4462 36.6306 23.3334C36.6306 23.2423 36.674 23.1968 36.7607 23.1968H38.4199C38.511 23.1968 38.5566 23.2423 38.5566 23.3334C38.5566 23.4462 38.4481 23.5416 38.2312 23.6197C38.0143 23.6978 37.9059 23.8756 37.9059 24.1532L37.8994 32.6118L36.7477 32.332L30.5144 24.5957V31.3821C30.5144 31.664 30.6228 31.844 30.8397 31.9221C31.0566 31.9959 31.1651 32.0869 31.1651 32.1954C31.1651 32.2865 31.1195 32.332 31.0284 32.332H29.3757C29.2847 32.332 29.2391 32.2865 29.2391 32.1954C29.2391 32.0869 29.3475 31.9959 29.5644 31.9221C29.7813 31.844 29.8898 31.664 29.8898 31.3821V24.1532C29.8898 23.8756 29.7813 23.6978 29.5644 23.6197C29.3475 23.5416 29.2391 23.4462 29.2391 23.3334C29.2391 23.2423 29.2847 23.1968 29.3757 23.1968H31.0479L37.2748 31.0112ZM45.0496 23.0471C45.2665 23.559 45.5333 24.1858 45.8499 24.9275C46.1709 25.6693 46.5006 26.4327 46.8389 27.2178C47.1816 28.003 47.5113 28.7664 47.8279 29.5082C48.1489 30.2499 48.42 30.8746 48.6413 31.3821C48.7063 31.5426 48.8343 31.6879 49.0252 31.818C49.1249 31.8831 49.2225 31.9373 49.318 31.9807C49.4177 32.0241 49.498 32.0653 49.5587 32.1043C49.6021 32.1347 49.6303 32.165 49.6433 32.1954C49.652 32.2127 49.6563 32.2301 49.6563 32.2474C49.6563 32.2605 49.652 32.2756 49.6433 32.293C49.6303 32.319 49.6042 32.332 49.5652 32.332H47.366C47.3269 32.332 47.2879 32.319 47.2489 32.293C47.2055 32.2626 47.1795 32.2301 47.1708 32.1954C47.1621 32.1824 47.1578 32.1694 47.1578 32.1564C47.1578 32.1173 47.1838 32.0761 47.2358 32.0327C47.2749 31.9937 47.3226 31.9525 47.379 31.9091C47.4354 31.8657 47.4766 31.8072 47.5026 31.7334C47.5156 31.6987 47.5221 31.6597 47.5221 31.6163C47.5221 31.5426 47.5048 31.4623 47.4701 31.3756L46.5071 29.1503H42.7138C42.5576 29.5233 42.4014 29.8964 42.2453 30.2694C42.0935 30.6381 41.9395 31.0069 41.7833 31.3756C41.7443 31.4623 41.7226 31.5404 41.7182 31.6098C41.7139 31.6402 41.7117 31.6705 41.7117 31.7009C41.7117 31.7443 41.7182 31.7855 41.7313 31.8245C41.7443 31.8809 41.766 31.9286 41.7963 31.9677C41.8267 32.0024 41.8484 32.0392 41.8614 32.0783C41.8657 32.113 41.8679 32.1368 41.8679 32.1498C41.8679 32.1629 41.8636 32.178 41.8549 32.1954C41.8245 32.2865 41.7768 32.332 41.7117 32.332H40.033C39.9897 32.332 39.9593 32.319 39.9419 32.293C39.9419 32.2887 39.9376 32.2778 39.9289 32.2605C39.9289 32.2518 39.9333 32.2301 39.9419 32.1954C39.968 32.139 40.0417 32.0826 40.1632 32.0262C40.2282 31.9959 40.2976 31.9633 40.3714 31.9286C40.4495 31.8896 40.5275 31.844 40.6056 31.792C40.7661 31.6792 40.8832 31.5426 40.957 31.3821L44.6462 23.0471H45.0496ZM46.2794 28.6233L44.5812 24.6607C44.3035 25.3244 44.0259 25.9859 43.7483 26.6453C43.475 27.3046 43.2018 27.9639 42.9285 28.6233H46.2794ZM57.6909 27.9271L55.4201 24.1467C55.3203 23.9992 55.1533 23.8539 54.9191 23.7108C54.7976 23.6457 54.6805 23.5937 54.5677 23.5546C54.4593 23.5112 54.3704 23.4679 54.301 23.4245C54.2533 23.3985 54.2164 23.3681 54.1904 23.3334C54.173 23.3074 54.1643 23.2835 54.1643 23.2618V23.2358C54.1687 23.2098 54.1904 23.1968 54.2294 23.1968H56.4351C56.4785 23.1968 56.5197 23.2098 56.5588 23.2358C56.6065 23.2662 56.6433 23.2987 56.6694 23.3334C56.6824 23.3551 56.6889 23.3768 56.6889 23.3985C56.6889 23.4288 56.6737 23.4614 56.6433 23.4961C56.613 23.5351 56.5761 23.5785 56.5327 23.6262C56.4894 23.6696 56.4655 23.7238 56.4612 23.7889V23.8214C56.4612 23.9168 56.4959 24.0144 56.5653 24.1142L58.758 27.5887L60.4432 25.0186C60.569 24.8278 60.6427 24.6629 60.6644 24.5241C60.6688 24.5024 60.6709 24.4807 60.6709 24.459C60.6709 24.3289 60.6189 24.1597 60.5148 23.9515L60.2936 23.5091L61.224 23.1057C61.2544 23.0927 61.2826 23.0862 61.3086 23.0862C61.365 23.0862 61.417 23.1209 61.4647 23.1903L61.8551 23.8474C61.9029 23.9298 61.9267 24.0123 61.9267 24.0947C61.9267 24.2422 61.853 24.3918 61.7055 24.5436C61.4756 24.7865 61.2305 25.0967 60.9702 25.4741L59.2395 27.9986C59.1614 28.1158 59.1094 28.2806 59.0833 28.4931C59.0616 28.7057 59.0508 28.9074 59.0508 29.0983V31.3821C59.0508 31.664 59.1592 31.844 59.3761 31.9221C59.593 31.9959 59.7015 32.0869 59.7015 32.1954C59.7015 32.2865 59.6559 32.332 59.5648 32.332H57.3591C57.268 32.332 57.2224 32.2865 57.2224 32.1954C57.2224 32.0869 57.3309 31.9959 57.5478 31.9221C57.7647 31.844 57.8731 31.664 57.8731 31.3821V28.6037C57.8731 28.3522 57.8124 28.1266 57.6909 27.9271ZM67.5219 23.0471C67.7388 23.559 68.0055 24.1858 68.3222 24.9275C68.6432 25.6693 68.9728 26.4327 69.3112 27.2178C69.6539 28.003 69.9835 28.7664 70.3002 29.5082C70.6212 30.2499 70.8923 30.8746 71.1135 31.3821C71.1786 31.5426 71.3065 31.6879 71.4974 31.818C71.5972 31.8831 71.6948 31.9373 71.7902 31.9807C71.89 32.0241 71.9702 32.0653 72.0309 32.1043C72.0743 32.1347 72.1025 32.165 72.1155 32.1954C72.1242 32.2127 72.1285 32.2301 72.1285 32.2474C72.1285 32.2605 72.1242 32.2756 72.1155 32.293C72.1025 32.319 72.0765 32.332 72.0374 32.332H69.8382C69.7992 32.332 69.7601 32.319 69.7211 32.293C69.6777 32.2626 69.6517 32.2301 69.643 32.1954C69.6343 32.1824 69.63 32.1694 69.63 32.1564C69.63 32.1173 69.656 32.0761 69.7081 32.0327C69.7471 31.9937 69.7948 31.9525 69.8512 31.9091C69.9076 31.8657 69.9488 31.8072 69.9749 31.7334C69.9879 31.6987 69.9944 31.6597 69.9944 31.6163C69.9944 31.5426 69.977 31.4623 69.9423 31.3756L68.9793 29.1503H65.186C65.0298 29.5233 64.8737 29.8964 64.7175 30.2694C64.5657 30.6381 64.4117 31.0069 64.2556 31.3756C64.2165 31.4623 64.1948 31.5404 64.1905 31.6098C64.1861 31.6402 64.184 31.6705 64.184 31.7009C64.184 31.7443 64.1905 31.7855 64.2035 31.8245C64.2165 31.8809 64.2382 31.9286 64.2686 31.9677C64.2989 32.0024 64.3206 32.0392 64.3336 32.0783C64.338 32.113 64.3401 32.1368 64.3401 32.1498C64.3401 32.1629 64.3358 32.178 64.3271 32.1954C64.2968 32.2865 64.249 32.332 64.184 32.332H62.5053C62.4619 32.332 62.4315 32.319 62.4142 32.293C62.4142 32.2887 62.4098 32.2778 62.4012 32.2605C62.4012 32.2518 62.4055 32.2301 62.4142 32.1954C62.4402 32.139 62.5139 32.0826 62.6354 32.0262C62.7005 31.9959 62.7699 31.9633 62.8436 31.9286C62.9217 31.8896 62.9998 31.844 63.0779 31.792C63.2384 31.6792 63.3555 31.5426 63.4292 31.3821L67.1185 23.0471H67.5219ZM68.7516 28.6233L67.0534 24.6607C66.7758 25.3244 66.4982 25.9859 66.2205 26.6453C65.9473 27.3046 65.674 27.9639 65.4007 28.6233H68.7516ZM75.8042 27.4781L79.2072 24.2573C79.5455 23.9407 79.8318 23.6674 80.0661 23.4375C80.2222 23.2813 80.3784 23.2033 80.5345 23.2033C80.6126 23.2033 80.6907 23.2228 80.7688 23.2618L81.4585 23.6002C81.5322 23.6435 81.5691 23.6956 81.5691 23.7563C81.5691 23.7824 81.5626 23.8106 81.5496 23.8409L81.2112 24.7909L80.7623 24.6022C80.5931 24.5328 80.4369 24.4981 80.2938 24.4981C80.0682 24.4981 79.8709 24.5827 79.7017 24.7518L77.0795 27.3089L81.9725 31.8245C82.0636 31.9156 82.159 31.985 82.2588 32.0327C82.3629 32.0761 82.415 32.1303 82.415 32.1954C82.415 32.2865 82.3716 32.332 82.2848 32.332H80.0791C79.988 32.332 79.9424 32.2865 79.9424 32.1954C79.9424 32.1607 79.9663 32.1217 80.014 32.0783C80.0921 32.0132 80.1355 31.9546 80.1442 31.9026V31.8961C80.1442 31.8397 80.0661 31.7443 79.9099 31.6098L75.8042 27.823V31.3821C75.8042 31.664 75.9127 31.844 76.1296 31.9221C76.3465 31.9959 76.4549 32.0869 76.4549 32.1954C76.4549 32.2865 76.4115 32.332 76.3248 32.332H74.119C74.0279 32.332 73.9824 32.2865 73.9824 32.1954C73.9824 32.0869 74.0908 31.9959 74.3077 31.9221C74.5246 31.844 74.6331 31.664 74.6331 31.3821V24.1532C74.6331 23.8756 74.5246 23.6978 74.3077 23.6197C74.0908 23.5416 73.9824 23.4462 73.9824 23.3334C73.9824 23.2423 74.0279 23.1968 74.119 23.1968H76.3248C76.4115 23.1968 76.4549 23.2423 76.4549 23.3334C76.4549 23.4462 76.3465 23.5416 76.1296 23.6197C75.9127 23.6978 75.8042 23.8756 75.8042 24.1532V27.4781ZM86.0191 24.1532V31.3756C86.0191 31.6619 86.1275 31.844 86.3444 31.9221C86.5613 31.9959 86.6698 32.0869 86.6698 32.1954C86.6698 32.2865 86.6242 32.332 86.5331 32.332H84.3274C84.2406 32.332 84.1972 32.2865 84.1972 32.1954C84.1972 32.0869 84.3057 31.9959 84.5226 31.9221C84.7395 31.844 84.8479 31.664 84.8479 31.3821V24.1532C84.8479 23.8713 84.7395 23.6934 84.5226 23.6197C84.3057 23.5416 84.1972 23.4462 84.1972 23.3334C84.1972 23.2423 84.2428 23.1968 84.3339 23.1968H86.5331C86.6242 23.1968 86.6698 23.2423 86.6698 23.3334C86.6698 23.4462 86.5613 23.5416 86.3444 23.6197C86.1275 23.6934 86.0191 23.8713 86.0191 24.1532ZM99.253 24.1532V31.3821C99.253 31.664 99.3614 31.844 99.5783 31.9221C99.7996 31.9959 99.9102 32.0869 99.9102 32.1954C99.9102 32.2865 99.8646 32.332 99.7735 32.332H97.5678C97.4767 32.332 97.4312 32.2865 97.4312 32.1954C97.4312 32.0869 97.5396 31.9959 97.7565 31.9221C97.9734 31.844 98.0818 31.664 98.0818 31.3821V24.4135L94.3275 32.5272H94.0737L90.3585 24.7193V31.3821C90.3585 31.664 90.4669 31.844 90.6838 31.9221C90.9007 31.9959 91.0091 32.0869 91.0091 32.1954C91.0091 32.2865 90.9636 32.332 90.8725 32.332H89.2198C89.1287 32.332 89.0832 32.2865 89.0832 32.1954C89.0832 32.0869 89.1916 31.9959 89.4085 31.9221C89.6254 31.844 89.7338 31.664 89.7338 31.3821V24.1532C89.7338 23.8756 89.6254 23.6978 89.4085 23.6197C89.1916 23.5416 89.0832 23.4462 89.0832 23.3334C89.0832 23.2423 89.1287 23.1968 89.2198 23.1968H90.9506L94.5097 30.4972L97.9582 23.1968H99.7735C99.8646 23.1968 99.9102 23.2423 99.9102 23.3334C99.9102 23.4462 99.7996 23.5416 99.5783 23.6197C99.3614 23.6978 99.253 23.8756 99.253 24.1532ZM103.996 31.7204H106.774C107.178 31.7204 107.518 31.5664 107.796 31.2584C108.078 30.9461 108.29 30.7032 108.433 30.5297C108.511 30.4343 108.572 30.3866 108.615 30.3866C108.707 30.3866 108.752 30.4321 108.752 30.5232C108.752 30.5796 108.748 30.6251 108.739 30.6598L108.264 32.332H102.285C102.206 32.332 102.167 32.2865 102.167 32.1954C102.167 32.0869 102.276 31.9959 102.493 31.9221C102.71 31.844 102.818 31.664 102.818 31.3821V24.1532C102.818 23.8713 102.71 23.6934 102.493 23.6197C102.276 23.5416 102.167 23.4462 102.167 23.3334C102.167 23.2423 102.213 23.1968 102.304 23.1968H108.342V24.869C108.342 24.9601 108.297 25.0056 108.206 25.0056C108.162 25.0056 108.082 24.9188 107.965 24.7453C107.748 24.446 107.559 24.214 107.399 24.0491C107.243 23.8843 107.034 23.8019 106.774 23.8019H103.996V27.335H105.486C105.763 27.335 105.946 27.2243 106.032 27.0031C106.119 26.7776 106.219 26.6648 106.332 26.6648C106.418 26.6648 106.462 26.7103 106.462 26.8014V28.4541C106.462 28.5452 106.418 28.5907 106.332 28.5907C106.219 28.5907 106.113 28.4801 106.013 28.2589C105.913 28.0377 105.724 27.9271 105.447 27.9271H103.996V31.7204ZM118.746 31.0112V24.1532C118.746 23.8756 118.637 23.6978 118.42 23.6197C118.208 23.5416 118.102 23.4462 118.102 23.3334C118.102 23.2423 118.145 23.1968 118.232 23.1968H119.891C119.982 23.1968 120.028 23.2423 120.028 23.3334C120.028 23.4462 119.919 23.5416 119.702 23.6197C119.485 23.6978 119.377 23.8756 119.377 24.1532L119.37 32.6118L118.219 32.332L111.985 24.5957V31.3821C111.985 31.664 112.094 31.844 112.311 31.9221C112.528 31.9959 112.636 32.0869 112.636 32.1954C112.636 32.2865 112.59 32.332 112.499 32.332H110.847C110.756 32.332 110.71 32.2865 110.71 32.1954C110.71 32.0869 110.819 31.9959 111.035 31.9221C111.252 31.844 111.361 31.664 111.361 31.3821V24.1532C111.361 23.8756 111.252 23.6978 111.035 23.6197C110.819 23.5416 110.71 23.4462 110.71 23.3334C110.71 23.2423 110.756 23.1968 110.847 23.1968H112.519L118.746 31.0112ZM123.898 27.4781L127.301 24.2573C127.64 23.9407 127.926 23.6674 128.16 23.4375C128.316 23.2813 128.473 23.2033 128.629 23.2033C128.707 23.2033 128.785 23.2228 128.863 23.2618L129.553 23.6002C129.626 23.6435 129.663 23.6956 129.663 23.7563C129.663 23.7824 129.657 23.8106 129.644 23.8409L129.305 24.7909L128.856 24.6022C128.687 24.5328 128.531 24.4981 128.388 24.4981C128.162 24.4981 127.965 24.5827 127.796 24.7518L125.174 27.3089L130.067 31.8245C130.158 31.9156 130.253 31.985 130.353 32.0327C130.457 32.0761 130.509 32.1303 130.509 32.1954C130.509 32.2865 130.466 32.332 130.379 32.332H128.173C128.082 32.332 128.037 32.2865 128.037 32.1954C128.037 32.1607 128.06 32.1217 128.108 32.0783C128.186 32.0132 128.23 31.9546 128.238 31.9026V31.8961C128.238 31.8397 128.16 31.7443 128.004 31.6098L123.898 27.823V31.3821C123.898 31.664 124.007 31.844 124.224 31.9221C124.441 31.9959 124.549 32.0869 124.549 32.1954C124.549 32.2865 124.506 32.332 124.419 32.332H122.213C122.122 32.332 122.077 32.2865 122.077 32.1954C122.077 32.0869 122.185 31.9959 122.402 31.9221C122.619 31.844 122.727 31.664 122.727 31.3821V24.1532C122.727 23.8756 122.619 23.6978 122.402 23.6197C122.185 23.5416 122.077 23.4462 122.077 23.3334C122.077 23.2423 122.122 23.1968 122.213 23.1968H124.419C124.506 23.1968 124.549 23.2423 124.549 23.3334C124.549 23.4462 124.441 23.5416 124.224 23.6197C124.007 23.6978 123.898 23.8756 123.898 24.1532V27.4781ZM136.54 23.4961C135.209 23.5004 134.278 23.9212 133.749 24.7583C133.22 25.5912 132.955 26.5932 132.955 27.7644C132.955 28.9399 133.287 29.9441 133.951 30.777C134.614 31.6055 135.478 32.0241 136.54 32.0327H136.573C137.609 32.0327 138.462 31.5903 139.13 30.7054C139.789 29.8292 140.119 28.8618 140.119 27.8034V27.7644C140.11 26.6843 139.828 25.704 139.273 24.8234C138.718 23.9385 137.807 23.4961 136.54 23.4961ZM136.54 22.9235H136.605C138.006 22.9235 139.188 23.3529 140.151 24.2118C141.049 25.0143 141.498 26.0727 141.498 27.387C141.498 27.5041 141.494 27.6234 141.485 27.7449C141.394 29.2371 140.876 30.3952 139.93 31.2194C138.989 32.0392 137.855 32.486 136.527 32.5598C136.427 32.5641 136.328 32.5663 136.228 32.5663C135.022 32.5663 133.955 32.1498 133.027 31.317C132.072 30.4668 131.595 29.3542 131.595 27.9791C131.595 27.901 131.597 27.823 131.602 27.7449C131.654 26.2657 132.131 25.0967 133.033 24.2378C133.94 23.3789 135.109 22.9408 136.54 22.9235Z" fill="#383838"/>
</svg>
