<svg width="20" height="20" viewBox="0 0 20 20" fill="none" xmlns="http://www.w3.org/2000/svg">
<path d="M17.4998 10.8327H2.49984C1.99984 10.8327 1.6665 10.4993 1.6665 9.99935C1.6665 9.49935 1.99984 9.16602 2.49984 9.16602H17.4998C17.9998 9.16602 18.3332 9.49935 18.3332 9.99935C18.3332 10.4993 17.9998 10.8327 17.4998 10.8327Z" fill="white"/>
<path d="M13.3333 15C13.0833 15 12.9167 14.9167 12.75 14.75C12.4167 14.4167 12.4167 13.9167 12.75 13.5833L16.3333 10L12.75 6.41667C12.4167 6.08333 12.4167 5.58333 12.75 5.25C13.0833 4.91667 13.5833 4.91667 13.9167 5.25L18.0833 9.41667C18.4167 9.75 18.4167 10.25 18.0833 10.5833L13.9167 14.75C13.75 14.9167 13.5833 15 13.3333 15Z" fill="white"/>
</svg>
