<svg width="16" height="16" viewBox="0 0 16 16" fill="none" xmlns="http://www.w3.org/2000/svg">
<g clip-path="url(#clip0_313_2341)">
<path d="M13.1379 15.3634C9.72352 15.7192 6.28011 15.7192 2.86577 15.3634C2.20273 15.295 1.58373 15.0066 1.11196 14.5464C0.640186 14.0862 0.344148 13.4819 0.273201 12.8343C-0.0910669 9.49882 -0.0910669 6.13499 0.273201 2.79954C0.343218 2.15183 0.638387 1.54713 1.1095 1.08626C1.58061 0.625392 2.1992 0.336195 2.86213 0.266887C6.27648 -0.0889624 9.71989 -0.0889624 13.1342 0.266887C13.7973 0.335286 14.4163 0.623634 14.888 1.08386C15.3598 1.54408 15.6559 2.14838 15.7268 2.79599C16.0911 6.13143 16.0911 9.49527 15.7268 12.8307C15.6568 13.4784 15.3616 14.0831 14.8905 14.544C14.4194 15.0049 13.8008 15.2941 13.1379 15.3634Z" fill="#0056FF"/>
<path d="M9.49609 5.14844H12.0023V5.75762H9.49609V5.14844Z" fill="white"/>
<path d="M12.9996 8.57219C12.9996 7.30053 11.9915 6.26953 10.7488 6.26953C9.50617 6.26953 8.49805 7.30053 8.49805 8.57219C8.49805 9.84384 9.43344 10.874 10.7488 10.874C11.7488 10.874 12.6032 10.4442 12.8932 9.41226H11.8378C11.741 9.58892 11.5967 9.73652 11.4206 9.83928C11.2445 9.94205 11.0431 9.99612 10.8379 9.9957C10.2479 9.9957 9.72888 9.58276 9.75979 8.88833H12.9823C12.9996 8.78709 12.9996 8.6823 12.9996 8.57219ZM9.76342 8.12018C9.8416 7.54829 10.2552 7.18331 10.7543 7.18331C11.2533 7.18331 11.6633 7.54829 11.7451 8.12018H9.76342Z" fill="white"/>
<path d="M8.11241 8.6678C8.0306 7.7851 7.00884 7.48761 7.00884 7.48761C7.397 7.31 7.8597 6.9468 7.85516 6.14669C7.84788 4.99225 6.61523 4.75781 6.21889 4.75781H3V10.7627H5.92437C6.3307 10.7627 6.7634 10.7103 7.10611 10.5433C8.0306 10.0993 8.19241 9.55139 8.11241 8.6678ZM4.35264 5.79414H5.7362C5.7362 5.79414 6.55433 5.77549 6.55433 6.48236C6.55433 7.18923 5.7362 7.1697 5.7362 7.1697H4.35264V5.79414ZM5.81801 9.7432H4.35264V8.10124H5.81801C5.81801 8.10124 6.79249 8.07904 6.79249 8.92178C6.79249 9.76451 5.81801 9.7432 5.81801 9.7432Z" fill="white"/>
</g>
<defs>
<clipPath id="clip0_313_2341">
<rect width="16" height="16" fill="white"/>
</clipPath>
</defs>
</svg>
